<svg width="120" height="120" viewBox="0 0 120 120" fill="none" xmlns="http://www.w3.org/2000/svg">
<circle cx="60" cy="60" r="60" fill="black"/>
<circle cx="60" cy="60" r="57.5" fill="#D17014" stroke="black"/>
<circle cx="60" cy="60" r="48" fill="#852914"/>
<path d="M64.2857 19.6881C66.4286 9.49351 88.2972 22.7272 95.3238 31.6838C102.35 40.6404 105.756 51.9359 104.859 63.3102C103.962 74.6845 98.8286 85.2985 90.486 93.0284C82.1434 100.758 71.207 105.034 59.8651 105C48.5233 104.966 37.6125 100.624 29.3162 92.844C21.0198 85.0639 15.9497 74.4191 15.1205 63.0396C14.2913 51.6602 17.7641 40.3853 24.8439 31.4713C31.9238 22.5573 49.8214 11.1032 53.5714 19.688" stroke="white" stroke-width="3" stroke-linecap="round"/>
<path d="M30.0054 37C30.0054 37 27.5 39 28.0881 46.5C33.236 82.5 44.0054 92 44.0054 92C44.0054 92 46.5054 95 60 95C73.4946 95 76.0055 92 76.0055 92C76.0055 92 86.7748 82.5 91.9228 46.5C92.5 39 90.0054 37 90.0054 37C90.0054 37 85.0108 30.4999 60.0054 31C35 31.5 30.0054 37 30.0054 37Z" fill="white"/>
<path d="M87.5 54.5C113.172 40.7924 93 78.9998 80.9999 78.9999" stroke="white" stroke-width="6"/>
<path d="M55.3582 76.7117C59.03 79.2827 63.0694 76.6391 65.6404 72.9673C68.2114 69.2963 69.3131 64.5963 65.6422 62.0253C61.9703 59.4543 57.931 62.097 55.36 65.7688C52.789 69.4407 51.6864 74.1407 55.3582 76.7117Z" stroke="#491800" stroke-width="2"/>
<path d="M64.614 63.4937C63.3653 63.7142 59.8396 65.6227 59.7661 68.8544C59.6917 72.0851 57.2677 74.7655 56.3865 75.2424C58.0028 75.2801 61.1609 73.1134 61.2344 69.8817C61.3088 66.6509 63.7319 63.9706 64.614 63.4937Z" fill="#491800"/>
<mask id="mask0_111_68" style="mask-type:alpha" maskUnits="userSpaceOnUse" x="27" y="30" width="76" height="65">
<path d="M30.0054 37C30.0054 37 27.5 39 28.0881 46.5C33.236 82.5 44.0054 92 44.0054 92C44.0054 92 46.5054 95 60 95C73.4946 95 76.0055 92 76.0055 92C76.0055 92 86.7748 82.5 91.9228 46.5C92.5 39 90.0054 37 90.0054 37C90.0054 37 85.0108 30.4999 60.0054 31C35 31.5 30.0054 37 30.0054 37Z" fill="white"/>
<path d="M87.5 54.5C113.172 40.7924 93 78.9998 80.9999 78.9999" stroke="white" stroke-width="6"/>
</mask>
<g mask="url(#mask0_111_68)">
<g filter="url(#filter0_f_111_68)">
<path d="M63 40.0138H106V95H63C63 95 66.6707 92.0008 64.5732 54.0103C63.7452 39.014 63 40.0138 63 40.0138Z" fill="black" fill-opacity="0.06"/>
</g>
<ellipse cx="60" cy="40.5" rx="29" ry="6.5" fill="#491800"/>
</g>
<defs>
<filter id="filter0_f_111_68" x="59" y="36" width="51" height="63" filterUnits="userSpaceOnUse" color-interpolation-filters="sRGB">
<feFlood flood-opacity="0" result="BackgroundImageFix"/>
<feBlend mode="normal" in="SourceGraphic" in2="BackgroundImageFix" result="shape"/>
<feGaussianBlur stdDeviation="2" result="effect1_foregroundBlur_111_68"/>
</filter>
</defs>
</svg>
